<?xml version="1.0" standalone="no"?>
<!DOCTYPE svg PUBLIC "-//W3C//DTD SVG 20010904//EN"
 "http://www.w3.org/TR/2001/REC-SVG-20010904/DTD/svg10.dtd">
<svg version="1.0" xmlns="http://www.w3.org/2000/svg"
 width="900.000000pt" height="256.000000pt" viewBox="0 0 900.000000 256.000000"
 preserveAspectRatio="xMidYMid meet">

<g transform="translate(0.000000,256.000000) scale(0.100000,-0.100000)"
fill="#000000" stroke="none">
<path d="M3484 2381 c-50 -23 -84 -69 -91 -121 -4 -31 -10 -40 -25 -40 -10 0
-36 -9 -57 -20 -116 -59 -114 -233 3 -289 52 -26 101 -27 147 -3 l36 18 139
-129 c76 -71 140 -135 142 -143 3 -12 -24 -14 -152 -14 -147 0 -156 -1 -176
-22 -25 -27 -26 -69 -1 -99 18 -22 25 -23 177 -25 l158 -3 17 -74 c34 -142
102 -261 217 -375 l64 -65 -38 -36 c-22 -21 -103 -97 -180 -170 l-142 -132
-36 22 c-51 30 -130 23 -179 -14 -44 -33 -72 -102 -64 -153 12 -73 58 -119
150 -148 11 -3 17 -16 17 -34 0 -68 80 -136 159 -136 94 1 165 68 165 158 1
29 -5 65 -13 79 -14 26 -13 28 47 82 34 31 65 56 69 56 4 0 14 -26 23 -58 21
-76 43 -116 93 -170 75 -81 164 -119 304 -130 148 -11 280 28 370 110 59 55
108 140 119 209 4 21 9 38 13 38 3 -1 33 -25 65 -54 58 -52 59 -54 47 -84 -54
-130 50 -263 186 -237 54 10 118 77 128 133 6 35 11 42 29 42 29 0 82 36 110
73 16 22 21 43 21 90 0 75 -27 120 -89 148 -52 24 -90 23 -144 -1 l-43 -19
-92 86 c-50 48 -129 123 -175 167 l-84 80 56 48 c126 111 209 261 250 451 l6
27 159 0 160 0 20 26 c26 34 27 68 1 94 -18 18 -33 20 -180 20 -130 0 -160 3
-160 14 0 7 61 70 136 139 l135 126 42 -20 c50 -22 86 -24 130 -5 44 18 95 78
103 122 16 88 -51 184 -137 197 -16 3 -24 12 -26 32 -11 81 -84 145 -165 145
-46 0 -114 -37 -137 -73 -31 -50 -36 -101 -16 -153 l17 -46 -88 -83 c-81 -77
-114 -99 -114 -77 0 16 -102 123 -158 166 -72 55 -157 98 -252 127 -97 30
-278 32 -385 5 -149 -39 -299 -136 -386 -251 -23 -30 -44 -55 -48 -55 -3 0
-48 39 -99 88 l-94 87 16 37 c60 141 -83 284 -220 219z m163 -65 c28 -30 33
-43 33 -85 0 -33 -6 -56 -20 -74 -11 -14 -20 -27 -20 -30 0 -5 135 -137 189
-184 31 -27 33 -31 20 -54 -7 -13 -25 -59 -39 -102 l-26 -77 -144 134 -144
134 -29 -24 c-22 -18 -40 -24 -78 -24 -143 0 -179 194 -45 245 24 9 53 14 63
11 17 -5 19 -1 19 42 0 84 56 136 138 129 42 -4 55 -10 83 -41z m1881 9 c36
-30 56 -75 50 -115 -4 -27 -2 -30 24 -30 84 0 142 -62 135 -143 -6 -68 -46
-108 -114 -114 -40 -4 -54 0 -85 20 l-37 26 -138 -128 -138 -128 -16 52 c-9
29 -27 74 -39 101 l-23 47 114 108 c63 60 109 108 103 109 -23 0 -47 66 -41
111 9 65 59 109 126 109 38 0 56 -6 79 -25z m-801 -118 c159 -55 280 -156 372
-309 l23 -38 -617 0 -616 0 28 52 c43 79 174 206 260 251 118 61 196 78 348
73 106 -3 143 -8 202 -29z m822 -619 c5 -13 5 -31 -1 -40 -8 -17 -68 -18
-1032 -18 -1120 0 -1064 -3 -1038 55 l12 25 1025 0 1026 0 8 -22z m-380 -169
c-64 -230 -223 -406 -431 -475 -76 -26 -96 -28 -238 -28 -144 0 -161 1 -234
27 -43 15 -99 40 -124 54 -103 61 -205 181 -261 307 -20 47 -51 151 -51 175 0
8 190 11 679 11 l680 0 -20 -71z m-953 -502 c34 -12 62 -26 63 -32 1 -5 -1
-34 -5 -63 -6 -52 -7 -53 -33 -47 -40 10 -126 61 -129 77 -3 17 25 88 36 88 4
0 35 -10 68 -23z m658 -34 c9 -26 16 -50 16 -54 0 -7 -141 -69 -158 -69 -7 0
-35 122 -28 126 18 10 143 50 148 48 3 -2 13 -25 22 -51z m-806 -18 c-12 -36
-22 -98 -25 -155 l-4 -95 -91 -85 -90 -86 21 -34 c70 -116 -60 -251 -175 -181
-40 24 -68 83 -61 127 l6 34 -46 0 c-39 0 -50 5 -84 39 -33 32 -39 45 -39 80
0 61 24 99 76 123 53 23 91 18 134 -19 l30 -24 182 170 c100 93 183 169 185
168 1 -1 -8 -29 -19 -62z m854 58 c2 -5 81 -81 175 -170 l173 -163 36 25 c72
49 161 26 195 -51 25 -55 13 -110 -31 -148 -31 -25 -90 -43 -108 -32 -5 3 -12
-19 -14 -51 -4 -49 -10 -61 -41 -90 -29 -26 -45 -33 -77 -33 -53 0 -96 23
-120 63 -26 41 -25 83 1 132 l22 40 -87 80 c-85 79 -86 81 -86 127 0 55 -22
176 -44 236 -8 23 -11 42 -6 42 4 0 10 -3 12 -7z m-459 -60 c28 -5 28 -6 25
-71 l-3 -67 -40 3 c-22 2 -64 8 -93 14 l-54 12 7 35 c17 100 10 93 73 86 32
-3 70 -9 85 -12z m214 -45 c5 -35 7 -66 3 -70 -3 -4 -40 -11 -83 -16 l-77 -8
0 67 0 68 33 5 c17 3 46 7 62 9 17 2 35 5 42 6 7 0 15 -24 20 -61z m-499 -54
c42 -21 78 -37 78 -38 4 -2 -16 -109 -20 -114 -10 -9 -156 81 -156 97 0 27 12
91 17 91 3 0 39 -16 81 -36z m737 -35 l7 -46 -85 -44 c-47 -24 -88 -41 -90
-39 -2 3 -7 33 -11 68 -6 55 -5 62 11 62 10 0 47 13 83 29 36 15 68 25 72 22
3 -3 9 -27 13 -52z m-457 -39 l32 0 0 -63 c0 -35 -2 -66 -5 -69 -6 -6 -115 9
-168 23 l-39 10 7 57 c4 31 9 60 11 63 2 3 31 0 66 -7 35 -8 78 -14 96 -14z
m235 3 c3 -10 8 -39 12 -64 l6 -47 -63 -11 c-35 -6 -76 -12 -93 -13 l-30 -3
-3 66 -3 67 68 9 c99 15 101 15 106 -4z m-572 -69 c61 -38 176 -81 253 -95
152 -26 357 6 498 77 26 13 49 24 51 24 10 0 -14 -133 -33 -184 -59 -157 -244
-244 -463 -216 -177 22 -301 126 -336 281 -13 57 -22 139 -16 139 3 0 24 -12
46 -26z"/>
<path d="M4100 2013 c-54 -61 -68 -89 -51 -106 10 -9 14 -9 22 5 5 9 29 41 54
71 25 31 45 60 45 66 0 24 -31 8 -70 -36z"/>
<path d="M4873 2024 c-3 -8 4 -25 15 -37 12 -12 30 -44 42 -70 21 -47 36 -58
46 -34 6 18 -11 63 -42 109 -30 42 -52 54 -61 32z"/>
<path d="M4194 1977 c-44 -66 -52 -97 -25 -97 9 0 81 108 81 121 0 22 -37 6
-56 -24z"/>
<path d="M4766 1981 c-8 -12 30 -101 43 -101 21 0 21 21 2 65 -19 43 -34 55
-45 36z"/>
<path d="M4286 1949 c-14 -23 -15 -34 -7 -42 9 -9 17 -6 31 13 22 29 26 60 7
60 -7 0 -21 -14 -31 -31z"/>
<path d="M4145 1431 c-92 -57 -119 -149 -72 -241 12 -24 39 -58 60 -74 34 -27
47 -31 102 -31 56 0 68 4 101 31 72 58 94 111 80 189 -8 43 -68 113 -113 132
-47 19 -122 16 -158 -6z"/>
<path d="M4692 1429 c-110 -55 -132 -201 -43 -290 35 -35 90 -59 139 -59 29 0
90 25 116 48 49 44 72 162 42 220 -47 90 -162 126 -254 81z"/>
<path d="M4462 1074 c-27 -18 -29 -55 -4 -77 25 -23 78 -21 102 3 31 31 25 57
-17 79 -30 15 -54 14 -81 -5z"/>
</g>
</svg>
